<svg xmlns="http://www.w3.org/2000/svg" xmlns:xlink="http://www.w3.org/1999/xlink" width="2000" zoomAndPan="magnify" viewBox="0 0 1500 1499.999933" height="2000" preserveAspectRatio="xMidYMid meet" version="1.0"><defs><g/><clipPath id="bfd09396b0"><rect x="0" width="549" y="0" height="122"/></clipPath><clipPath id="900b1b0334"><path d="M 518.328125 606 L 971.734375 606 L 971.734375 793 L 518.328125 793 Z M 518.328125 606 " clip-rule="nonzero"/></clipPath><clipPath id="10ace58c86"><path d="M 807.257812 519.316406 C 787.296875 532.171875 767.011719 544.945312 745.546875 543.085938 L 745.03125 543.085938 C 723.5625 544.945312 703.277344 532.125 683.308594 519.316406 C 652.714844 499.710938 622.878906 480.125 590.777344 513.125 C 544.550781 562.425781 480.441406 733.867188 548.710938 784.527344 C 559.472656 792.507812 573.332031 794.550781 586.328125 791.316406 C 649.007812 775.773438 638.796875 704.492188 723.46875 694.804688 C 731.300781 694.078125 738.488281 693.761719 745.277344 693.714844 C 752.066406 693.667969 759.300781 694.078125 767.070312 694.804688 C 852.773438 704.59375 841.261719 777.457031 906.527344 791.792969 C 917.804688 794.285156 929.898438 792.589844 939.457031 786.152344 C 1011.605469 737.703125 946.5625 562.953125 899.808594 513.066406 C 887.28125 500.210938 875.105469 495.316406 863.105469 495.316406 C 844.3125 495.316406 825.929688 507.292969 807.269531 519.257812 " clip-rule="nonzero"/></clipPath><clipPath id="a6df39dcc3"><path d="M 438 458.496094 L 1052 458.496094 L 1052 797.496094 L 438 797.496094 Z M 438 458.496094 " clip-rule="nonzero"/></clipPath></defs><rect x="-150" width="1800" fill="#ffffff" y="-149.999993" height="1799.99992" fill-opacity="1"/><rect x="-150" width="1800" fill="#121212" y="-149.999993" height="1799.99992" fill-opacity="1"/><g transform="matrix(1, 0, 0, 1, 476, 853)"><g clip-path="url(#bfd09396b0)"><g fill="#2650ff" fill-opacity="1"><g transform="translate(2.064861, 84.706083)"><g><path d="M 23.90625 -79.515625 L 23.90625 0 L 5.78125 0 L 5.78125 -79.515625 Z M 23.90625 -79.515625 "/></g></g></g><g fill="#2650ff" fill-opacity="1"><g transform="translate(31.735479, 84.706083)"><g><path d="M 71.515625 0 L 67.765625 -47.140625 L 67.28125 -47.140625 L 50.984375 -0.484375 L 40.1875 -0.484375 L 23.90625 -47.140625 L 23.421875 -47.140625 L 19.65625 0 L 1.546875 0 L 8.671875 -79.515625 L 27.953125 -79.515625 L 45.59375 -33.640625 L 63.234375 -79.515625 L 82.515625 -79.515625 L 89.640625 0 Z M 71.515625 0 "/></g></g></g><g fill="#2650ff" fill-opacity="1"><g transform="translate(122.866645, 84.706083)"><g/></g></g><g fill="#2650ff" fill-opacity="1"><g transform="translate(149.165606, 84.706083)"><g><path d="M 23.90625 -79.515625 L 23.90625 -15.90625 L 51.28125 -15.90625 L 51.28125 0 L 5.78125 0 L 5.78125 -79.515625 Z M 23.90625 -79.515625 "/></g></g></g><g fill="#2650ff" fill-opacity="1"><g transform="translate(203.593813, 84.706083)"><g><path d="M 51.28125 -79.515625 L 51.28125 -63.625 L 23.90625 -63.625 L 23.90625 -47.8125 L 50.125 -47.8125 L 50.125 -31.90625 L 23.90625 -31.90625 L 23.90625 -15.90625 L 51.28125 -15.90625 L 51.28125 0 L 5.78125 0 L 5.78125 -79.515625 Z M 51.28125 -79.515625 "/></g></g></g><g fill="#2650ff" fill-opacity="1"><g transform="translate(259.467032, 84.706083)"><g><path d="M 77.6875 -44.53125 L 77.6875 -27.28125 C 75.632812 -17.832031 71.132812 -10.679688 64.1875 -5.828125 C 57.25 -0.972656 49.507812 1.453125 40.96875 1.453125 C 30.238281 1.453125 21.097656 -2.5625 13.546875 -10.59375 C 5.992188 -18.632812 2.21875 -28.34375 2.21875 -39.71875 C 2.21875 -51.28125 5.910156 -61.046875 13.296875 -69.015625 C 20.691406 -76.984375 29.914062 -80.96875 40.96875 -80.96875 C 53.882812 -80.96875 64.101562 -76.4375 71.625 -67.375 L 59.765625 -54.359375 C 55.523438 -61.171875 49.613281 -64.578125 42.03125 -64.578125 C 36.4375 -64.578125 31.660156 -62.148438 27.703125 -57.296875 C 23.753906 -52.453125 21.78125 -46.59375 21.78125 -39.71875 C 21.78125 -32.96875 23.753906 -27.195312 27.703125 -22.40625 C 31.660156 -17.625 36.4375 -15.234375 42.03125 -15.234375 C 46.65625 -15.234375 50.6875 -16.628906 54.125 -19.421875 C 57.5625 -22.210938 59.28125 -25.925781 59.28125 -30.5625 L 40.96875 -30.5625 L 40.96875 -44.53125 Z M 77.6875 -44.53125 "/></g></g></g><g fill="#2650ff" fill-opacity="1"><g transform="translate(339.327182, 84.706083)"><g><path d="M 51.28125 -79.515625 L 51.28125 -63.625 L 23.90625 -63.625 L 23.90625 -47.8125 L 50.125 -47.8125 L 50.125 -31.90625 L 23.90625 -31.90625 L 23.90625 -15.90625 L 51.28125 -15.90625 L 51.28125 0 L 5.78125 0 L 5.78125 -79.515625 Z M 51.28125 -79.515625 "/></g></g></g><g fill="#2650ff" fill-opacity="1"><g transform="translate(395.200401, 84.706083)"><g><path d="M 23.90625 -49.359375 L 23.90625 0 L 5.78125 0 L 5.78125 -79.515625 L 23.90625 -79.515625 L 55.515625 -30.171875 L 55.71875 -30.171875 L 55.71875 -79.515625 L 73.828125 -79.515625 L 73.828125 0 L 55.71875 0 L 24.09375 -49.359375 Z M 23.90625 -49.359375 "/></g></g></g><g fill="#2650ff" fill-opacity="1"><g transform="translate(474.771582, 84.706083)"><g><path d="M 5.78125 -79.515625 L 28.828125 -79.515625 C 39.878906 -79.515625 49.320312 -75.738281 57.15625 -68.1875 C 65 -60.644531 68.921875 -51.1875 68.921875 -39.8125 C 68.921875 -28.375 65.015625 -18.878906 57.203125 -11.328125 C 49.398438 -3.773438 39.941406 0 28.828125 0 L 5.78125 0 Z M 23.90625 -16.1875 L 26.703125 -16.1875 C 33.316406 -16.1875 38.726562 -18.421875 42.9375 -22.890625 C 47.144531 -27.359375 49.285156 -32.96875 49.359375 -39.71875 C 49.359375 -46.457031 47.25 -52.078125 43.03125 -56.578125 C 38.820312 -61.078125 33.378906 -63.328125 26.703125 -63.328125 L 23.90625 -63.328125 Z M 23.90625 -16.1875 "/></g></g></g></g></g><path fill="#ffffff" d="M 963.789062 487.917969 C 972.550781 482.332031 982.390625 477.0625 992.734375 478.054688 C 1003.074219 479.050781 1013.054688 489.085938 1010.121094 499.089844 C 1012.738281 492.359375 1004.1875 485.605469 997.117188 487.054688 C 990.046875 488.503906 985.089844 494.742188 981.09375 500.75 C 977.097656 506.757812 972.914062 513.300781 966.300781 516.105469 C 960.222656 518.664062 952.640625 517.742188 947.871094 522.636719 C 941.949219 528.726562 943.886719 537.828125 950.699219 542.921875 C 958.203125 548.496094 968.730469 546.964844 976.699219 542.421875 C 984.226562 538.109375 990.105469 531.507812 996.402344 525.546875 C 1002.703125 519.585938 1009.96875 514.011719 1018.523438 512.691406 C 1025.242188 511.605469 1032.078125 513.21875 1038.660156 514.925781 C 1045.238281 516.628906 1051.992188 518.429688 1058.757812 517.753906 C 1065.523438 517.074219 1068.1875 517.589844 1070.515625 511.195312 C 1072.839844 504.804688 1067.652344 492.640625 1056.234375 494.660156 C 1081.101562 487.871094 1079.429688 519.492188 1068.023438 528.175781 C 1061.246094 533.339844 1052.179688 534.148438 1043.660156 534.089844 C 1033.398438 534.019531 1022.777344 533.039062 1013.523438 538.390625 C 1011.511719 539.496094 1009.761719 540.925781 1008.273438 542.671875 C 1006.785156 544.421875 1005.65625 546.378906 1004.886719 548.542969 C 1000.703125 561.398438 1013.347656 570.058594 1024.601562 569.8125 C 1033.808594 569.613281 1042.292969 565.136719 1050.636719 561.234375 C 1058.980469 557.332031 1068.164062 553.816406 1077.199219 555.660156 C 1089.199219 558.113281 1098.234375 569.554688 1110.433594 570.59375 C 1111.457031 570.683594 1112.484375 570.695312 1113.507812 570.628906 C 1114.535156 570.5625 1115.550781 570.417969 1116.558594 570.199219 C 1117.5625 569.980469 1118.546875 569.691406 1119.507812 569.324219 C 1120.46875 568.957031 1121.394531 568.523438 1122.292969 568.015625 C 1123.1875 567.511719 1124.039062 566.941406 1124.851562 566.308594 C 1125.660156 565.675781 1126.417969 564.984375 1127.125 564.234375 C 1127.832031 563.488281 1128.480469 562.691406 1129.066406 561.847656 C 1129.652344 561.003906 1130.175781 560.121094 1130.628906 559.195312 C 1131.082031 558.273438 1131.464844 557.324219 1131.777344 556.34375 C 1132.089844 555.363281 1132.328125 554.363281 1132.488281 553.347656 C 1132.648438 552.332031 1132.734375 551.3125 1132.742188 550.28125 C 1132.75 549.253906 1132.683594 548.230469 1132.539062 547.210938 C 1132.394531 546.195312 1132.171875 545.191406 1131.875 544.207031 C 1131.582031 543.222656 1131.214844 542.265625 1130.773438 541.335938 C 1130.335938 540.402344 1129.828125 539.511719 1129.253906 538.660156 C 1128.683594 537.804688 1128.046875 536.996094 1127.355469 536.238281 C 1128.328125 537.132812 1129.234375 538.089844 1130.074219 539.113281 C 1130.910156 540.136719 1131.671875 541.214844 1132.355469 542.34375 C 1133.039062 543.476562 1133.636719 544.652344 1134.152344 545.871094 C 1134.667969 547.085938 1135.09375 548.335938 1135.429688 549.613281 C 1135.765625 550.894531 1136.007812 552.191406 1136.160156 553.503906 C 1136.308594 554.816406 1136.363281 556.136719 1136.328125 557.457031 C 1136.289062 558.777344 1136.15625 560.089844 1135.929688 561.394531 C 1135.703125 562.695312 1135.382812 563.976562 1134.972656 565.234375 C 1134.5625 566.488281 1134.066406 567.710938 1133.480469 568.898438 C 1132.894531 570.082031 1132.226562 571.21875 1131.480469 572.308594 C 1130.730469 573.398438 1129.90625 574.429688 1129.011719 575.402344 C 1128.117188 576.375 1127.15625 577.277344 1126.128906 578.113281 C 1125.101562 578.949219 1124.023438 579.703125 1122.890625 580.382812 C 1121.753906 581.0625 1120.578125 581.660156 1119.359375 582.171875 C 1118.140625 582.679688 1116.890625 583.101562 1115.609375 583.433594 C 1114.328125 583.765625 1113.03125 584.003906 1111.71875 584.152344 C 1103.210938 585.109375 1094.820312 582.09375 1086.335938 580.960938 C 1076.613281 579.664062 1064.953125 581.753906 1061.492188 591.921875 C 1061.035156 593.421875 1060.792969 594.957031 1060.765625 596.523438 C 1060.734375 598.089844 1060.921875 599.632812 1061.320312 601.148438 C 1061.722656 602.664062 1062.320312 604.097656 1063.121094 605.445312 C 1063.921875 606.796875 1064.890625 608.007812 1066.027344 609.089844 C 1074.59375 617.546875 1087.480469 616.953125 1097.929688 612.59375 C 1106.636719 608.984375 1114.136719 603.046875 1121.988281 597.824219 C 1129.84375 592.597656 1138.480469 587.890625 1147.898438 587.304688 C 1148.570312 587.265625 1149.246094 587.242188 1149.921875 587.246094 C 1150.597656 587.246094 1151.269531 587.265625 1151.945312 587.3125 C 1152.617188 587.355469 1153.289062 587.417969 1153.960938 587.503906 C 1154.628906 587.589844 1155.292969 587.699219 1155.957031 587.828125 C 1156.621094 587.953125 1157.277344 588.105469 1157.933594 588.273438 C 1158.585938 588.445312 1159.234375 588.632812 1159.875 588.84375 C 1160.515625 589.054688 1161.148438 589.285156 1161.777344 589.539062 C 1162.402344 589.789062 1163.019531 590.058594 1163.628906 590.347656 C 1164.242188 590.640625 1164.839844 590.949219 1165.429688 591.277344 C 1166.019531 591.605469 1166.597656 591.949219 1167.167969 592.316406 C 1167.734375 592.679688 1168.292969 593.0625 1168.835938 593.460938 C 1169.378906 593.863281 1169.910156 594.277344 1170.425781 594.710938 C 1170.945312 595.144531 1171.449219 595.59375 1171.9375 596.0625 C 1172.425781 596.527344 1172.902344 597.007812 1173.359375 597.503906 C 1173.816406 597.996094 1174.261719 598.507812 1174.6875 599.03125 C 1175.113281 599.554688 1175.523438 600.089844 1175.914062 600.640625 C 1176.308594 601.1875 1176.683594 601.75 1177.039062 602.324219 C 1177.394531 602.894531 1177.734375 603.480469 1178.054688 604.074219 C 1178.375 604.667969 1178.675781 605.273438 1178.957031 605.886719 C 1179.238281 606.5 1179.5 607.121094 1179.742188 607.75 C 1179.984375 608.382812 1180.207031 609.019531 1180.410156 609.664062 C 1180.613281 610.308594 1180.792969 610.957031 1180.953125 611.613281 C 1181.117188 612.269531 1181.253906 612.929688 1181.375 613.59375 C 1181.492188 614.257812 1181.59375 614.925781 1181.667969 615.597656 C 1181.746094 616.265625 1181.800781 616.9375 1181.835938 617.613281 C 1181.871094 618.289062 1181.882812 618.960938 1181.875 619.636719 C 1181.867188 620.3125 1181.835938 620.988281 1181.785156 621.660156 C 1181.734375 622.332031 1181.664062 623.003906 1181.570312 623.671875 C 1181.476562 624.339844 1181.359375 625.007812 1181.226562 625.667969 C 1181.089844 626.328125 1180.933594 626.984375 1180.753906 627.636719 C 1180.578125 628.289062 1180.382812 628.933594 1180.164062 629.570312 C 1179.945312 630.210938 1179.707031 630.84375 1179.449219 631.464844 C 1181.902344 621.300781 1172.882812 611.027344 1162.632812 608.949219 C 1152.382812 606.867188 1141.84375 610.96875 1132.90625 616.414062 C 1123.964844 621.859375 1115.878906 628.730469 1106.390625 633.148438 C 1104.3125 634.09375 1102.183594 634.914062 1100.011719 635.613281 C 1097.835938 636.3125 1095.628906 636.882812 1093.390625 637.324219 C 1091.148438 637.765625 1088.890625 638.074219 1086.613281 638.253906 C 1084.339844 638.429688 1082.058594 638.476562 1079.777344 638.390625 C 1077.496094 638.304688 1075.226562 638.085938 1072.972656 637.734375 C 1070.714844 637.386719 1068.488281 636.90625 1066.285156 636.296875 C 1064.085938 635.6875 1061.929688 634.953125 1059.8125 634.089844 C 1057.699219 633.230469 1055.640625 632.25 1053.640625 631.152344 C 1043.378906 625.390625 1035.152344 616.683594 1025.804688 609.542969 C 1014.75 601.082031 1000.75 594.503906 986.960938 599.902344 C 978.78125 603.105469 972.9375 611.074219 973.929688 619.769531 C 975.519531 633.394531 990.945312 638.105469 1003.695312 637.765625 C 1015.378906 637.4375 1027.824219 634.808594 1038.425781 639.832031 C 1044.476562 642.707031 1049.140625 647.757812 1054.09375 652.253906 C 1059.050781 656.753906 1064.835938 660.972656 1071.507812 661.476562 C 1078.179688 661.976562 1085.601562 657.257812 1085.753906 650.574219 C 1087.972656 661.488281 1075.597656 667.925781 1066.332031 671.09375 C 1063.996094 671.863281 1061.605469 672.347656 1059.15625 672.546875 C 1056.707031 672.746094 1054.269531 672.65625 1051.839844 672.273438 C 1049.414062 671.894531 1047.0625 671.230469 1044.792969 670.289062 C 1042.523438 669.34375 1040.398438 668.148438 1038.414062 666.699219 C 1033.480469 663.03125 1029.765625 657.945312 1025.019531 654.03125 C 1020.277344 650.117188 1013.710938 647.417969 1007.996094 649.695312 C 1003.402344 651.53125 1000.5625 656.066406 998.003906 660.308594 C 995.445312 664.546875 992.488281 669.035156 987.835938 670.707031 C 986.996094 670.980469 986.136719 671.128906 985.253906 671.148438 C 984.371094 671.164062 983.503906 671.054688 982.652344 670.816406 C 981.800781 670.578125 981.003906 670.222656 980.257812 669.75 C 979.515625 669.273438 978.855469 668.703125 978.277344 668.03125 C 976.515625 665.695312 972.867188 665.695312 971.804688 668.382812 C 969.621094 673.851562 973.988281 680.066406 979.515625 681.914062 C 985.042969 683.761719 990.898438 682.207031 996.167969 679.996094 C 1001.441406 677.789062 1006.441406 674.855469 1012.003906 673.570312 C 1020.871094 671.523438 1030.117188 673.875 1038.777344 676.667969 C 1047.433594 679.460938 1056.175781 682.742188 1065.277344 682.601562 C 1074.382812 682.464844 1084.117188 677.929688 1087.339844 669.445312 C 1077.992188 692.3125 1048.917969 705.132812 1025.898438 695.375 C 1025.09375 695.019531 1024.257812 694.777344 1023.386719 694.648438 C 1022.515625 694.515625 1021.644531 694.503906 1020.773438 694.605469 C 1019.898438 694.707031 1019.054688 694.925781 1018.238281 695.253906 C 1017.421875 695.582031 1016.664062 696.011719 1015.964844 696.542969 C 1010.847656 700.644531 1014.457031 707.609375 1019.039062 711.058594 C 1029.238281 718.746094 1043.578125 718.582031 1055.707031 714.5625 C 1067.839844 710.542969 1078.496094 703.136719 1089.714844 697.035156 C 1100.933594 690.933594 1113.519531 685.992188 1126.195312 687.511719 C 1138.875 689.03125 1154.570312 709.457031 1155.117188 722.21875 C 1135.582031 678.558594 1109.742188 715.664062 1090.695312 725.652344 C 1071.648438 735.644531 1049.363281 745.519531 1029.390625 737.515625 C 1022.988281 734.945312 1017.414062 730.703125 1011.382812 727.324219 C 1004.023438 723.222656 995.292969 720.3125 987.183594 724.226562 C 986.195312 724.675781 985.277344 725.238281 984.429688 725.917969 C 983.585938 726.597656 982.835938 727.375 982.1875 728.242188 C 981.535156 729.113281 981.003906 730.050781 980.59375 731.054688 C 980.179688 732.058594 979.898438 733.097656 979.75 734.171875 C 978.746094 743.519531 988.375 748.582031 996.8125 749.082031 C 1004.265625 749.527344 1011.851562 747.761719 1019.132812 749.363281 C 1026.410156 750.964844 1033.492188 758.023438 1031.203125 765.117188 C 1029.53125 756.140625 1017.929688 752.261719 1009.199219 754.949219 C 1000.46875 757.636719 993.890625 764.625 986.996094 770.679688 C 980.101562 776.730469 971.722656 782.363281 962.644531 781.3125 C 957.898438 780.773438 953.5625 778.460938 949.308594 776.289062 C 945.054688 774.113281 940.546875 772.011719 935.765625 771.976562 C 930.984375 771.941406 925.855469 774.558594 924.476562 779.128906 C 923.097656 783.695312 927.316406 789.433594 931.957031 788.289062 C 918.390625 795.300781 900.976562 786.828125 892.84375 773.914062 C 884.710938 761.003906 883.496094 745.050781 882.433594 729.824219 C 879.183594 681.457031 875.921875 633.078125 874.964844 584.605469 C 874.496094 560.789062 873.492188 536.367188 875.746094 512.632812 C 877.523438 493.9375 884.125 485.546875 902.953125 491.949219 C 912.769531 495.28125 922.210938 501.660156 932.878906 501.390625 C 944.425781 501.101562 954.347656 493.984375 963.707031 488.011719 " fill-opacity="1" fill-rule="nonzero"/><path fill="#ffffff" d="M 536.171875 487.917969 C 527.40625 482.332031 517.578125 477.0625 507.238281 478.054688 C 496.894531 479.050781 486.902344 489.085938 489.835938 499.089844 C 487.21875 492.359375 495.773438 485.605469 502.84375 487.054688 C 509.914062 488.503906 514.867188 494.742188 518.875 500.75 C 522.882812 506.757812 527.054688 513.300781 533.660156 516.105469 C 539.746094 518.664062 547.320312 517.742188 552.085938 522.636719 C 558.011719 528.726562 556.070312 537.828125 549.257812 542.921875 C 541.769531 548.496094 531.226562 546.964844 523.269531 542.421875 C 515.746094 538.109375 509.867188 531.507812 503.554688 525.546875 C 497.246094 519.585938 490 514.011719 481.433594 512.691406 C 474.714844 511.605469 467.890625 513.21875 461.300781 514.925781 C 454.710938 516.628906 447.96875 518.429688 441.203125 517.753906 C 434.433594 517.074219 431.78125 517.589844 429.457031 511.195312 C 427.132812 504.804688 432.308594 492.640625 443.738281 494.660156 C 418.859375 487.871094 420.539062 519.492188 431.933594 528.175781 C 438.710938 533.339844 447.792969 534.148438 456.3125 534.089844 C 466.558594 534.019531 477.179688 533.039062 486.4375 538.390625 C 488.449219 539.492188 490.203125 540.921875 491.691406 542.671875 C 493.179688 544.421875 494.304688 546.378906 495.074219 548.542969 C 499.257812 561.398438 486.613281 570.058594 475.359375 569.8125 C 466.148438 569.613281 457.667969 565.136719 449.324219 561.234375 C 440.980469 557.332031 431.792969 553.816406 422.761719 555.660156 C 410.761719 558.113281 401.726562 569.554688 389.527344 570.59375 C 388.503906 570.683594 387.476562 570.695312 386.449219 570.628906 C 385.421875 570.5625 384.40625 570.417969 383.402344 570.199219 C 382.398438 569.980469 381.414062 569.691406 380.453125 569.324219 C 379.492188 568.957031 378.5625 568.523438 377.667969 568.015625 C 376.773438 567.511719 375.917969 566.941406 375.109375 566.308594 C 374.296875 565.675781 373.539062 564.984375 372.832031 564.234375 C 372.128906 563.488281 371.480469 562.691406 370.894531 561.847656 C 370.304688 561.003906 369.785156 560.121094 369.332031 559.195312 C 368.875 558.273438 368.492188 557.324219 368.179688 556.34375 C 367.871094 555.363281 367.632812 554.363281 367.472656 553.347656 C 367.308594 552.332031 367.222656 551.3125 367.214844 550.28125 C 367.207031 549.253906 367.277344 548.230469 367.421875 547.210938 C 367.566406 546.195312 367.789062 545.191406 368.082031 544.207031 C 368.378906 543.222656 368.746094 542.265625 369.183594 541.335938 C 369.625 540.40625 370.132812 539.511719 370.703125 538.660156 C 371.277344 537.804688 371.910156 536.996094 372.605469 536.238281 C 371.628906 537.132812 370.722656 538.089844 369.886719 539.113281 C 369.046875 540.136719 368.289062 541.214844 367.605469 542.34375 C 366.921875 543.476562 366.320312 544.652344 365.808594 545.871094 C 365.292969 547.085938 364.867188 548.335938 364.53125 549.613281 C 364.195312 550.894531 363.949219 552.191406 363.800781 553.503906 C 363.652344 554.816406 363.59375 556.136719 363.632812 557.457031 C 363.671875 558.777344 363.804688 560.089844 364.03125 561.394531 C 364.257812 562.695312 364.578125 563.976562 364.988281 565.234375 C 365.398438 566.488281 365.894531 567.710938 366.480469 568.898438 C 367.066406 570.082031 367.730469 571.21875 368.480469 572.308594 C 369.230469 573.398438 370.050781 574.429688 370.949219 575.402344 C 371.84375 576.375 372.804688 577.277344 373.832031 578.113281 C 374.855469 578.949219 375.9375 579.703125 377.070312 580.382812 C 378.203125 581.0625 379.382812 581.660156 380.601562 582.171875 C 381.820312 582.679688 383.070312 583.101562 384.351562 583.433594 C 385.628906 583.765625 386.925781 584.003906 388.242188 584.152344 C 396.75 585.109375 405.140625 582.09375 413.632812 580.960938 C 423.34375 579.664062 435.007812 581.753906 438.464844 591.921875 C 440.511719 597.929688 438.464844 604.636719 433.933594 609.089844 C 425.367188 617.546875 412.476562 616.953125 402.042969 612.59375 C 393.324219 608.984375 385.824219 603.046875 377.96875 597.824219 C 370.117188 592.597656 361.480469 587.890625 352.0625 587.304688 C 351.386719 587.261719 350.714844 587.242188 350.039062 587.242188 C 349.363281 587.242188 348.6875 587.265625 348.015625 587.308594 C 347.339844 587.351562 346.667969 587.417969 346 587.503906 C 345.328125 587.585938 344.664062 587.695312 344 587.824219 C 343.335938 587.949219 342.679688 588.097656 342.023438 588.269531 C 341.371094 588.4375 340.722656 588.628906 340.082031 588.839844 C 339.441406 589.050781 338.804688 589.28125 338.179688 589.53125 C 337.550781 589.78125 336.933594 590.054688 336.324219 590.34375 C 335.714844 590.632812 335.113281 590.941406 334.523438 591.269531 C 333.933594 591.597656 333.355469 591.945312 332.785156 592.308594 C 332.21875 592.671875 331.660156 593.054688 331.117188 593.457031 C 330.574219 593.855469 330.042969 594.273438 329.523438 594.707031 C 329.007812 595.140625 328.503906 595.589844 328.015625 596.054688 C 327.527344 596.519531 327.050781 597 326.59375 597.496094 C 326.132812 597.992188 325.691406 598.5 325.265625 599.023438 C 324.839844 599.546875 324.429688 600.085938 324.035156 600.632812 C 323.644531 601.183594 323.269531 601.746094 322.910156 602.316406 C 322.554688 602.890625 322.214844 603.472656 321.894531 604.070312 C 321.578125 604.664062 321.277344 605.269531 320.992188 605.882812 C 320.710938 606.496094 320.449219 607.117188 320.207031 607.746094 C 319.964844 608.378906 319.742188 609.015625 319.539062 609.660156 C 319.339844 610.304688 319.15625 610.953125 318.996094 611.609375 C 318.835938 612.265625 318.695312 612.925781 318.578125 613.589844 C 318.457031 614.253906 318.359375 614.921875 318.285156 615.59375 C 318.207031 616.265625 318.152344 616.9375 318.117188 617.613281 C 318.082031 618.285156 318.070312 618.960938 318.078125 619.636719 C 318.085938 620.3125 318.117188 620.984375 318.167969 621.660156 C 318.21875 622.332031 318.292969 623.003906 318.386719 623.671875 C 318.480469 624.339844 318.59375 625.003906 318.730469 625.667969 C 318.867188 626.328125 319.023438 626.984375 319.203125 627.636719 C 319.378906 628.289062 319.578125 628.933594 319.796875 629.570312 C 320.015625 630.210938 320.253906 630.84375 320.511719 631.464844 C 318.046875 621.300781 327.066406 611.027344 337.328125 608.949219 C 347.585938 606.867188 358.117188 610.96875 367.042969 616.414062 C 375.972656 621.859375 384.070312 628.730469 393.558594 633.148438 C 395.636719 634.09375 397.761719 634.914062 399.9375 635.613281 C 402.109375 636.3125 404.316406 636.882812 406.558594 637.324219 C 408.796875 637.765625 411.054688 638.074219 413.332031 638.253906 C 415.609375 638.429688 417.886719 638.476562 420.167969 638.390625 C 422.449219 638.304688 424.71875 638.085938 426.976562 637.734375 C 429.234375 637.386719 431.460938 636.90625 433.660156 636.296875 C 435.863281 635.6875 438.019531 634.953125 440.132812 634.089844 C 442.25 633.230469 444.308594 632.25 446.308594 631.152344 C 456.566406 625.390625 464.804688 616.683594 474.144531 609.542969 C 485.199219 601.082031 499.199219 594.503906 513 599.902344 C 521.179688 603.105469 527.019531 611.074219 526.015625 619.769531 C 524.425781 633.394531 509.011719 638.105469 496.253906 637.765625 C 484.566406 637.4375 472.121094 634.808594 461.523438 639.832031 C 455.480469 642.707031 450.808594 647.757812 445.863281 652.253906 C 440.921875 656.753906 435.113281 660.972656 428.441406 661.476562 C 421.769531 661.976562 414.347656 657.257812 414.195312 650.574219 C 411.976562 661.488281 424.351562 667.925781 433.628906 671.09375 C 435.960938 671.863281 438.355469 672.347656 440.804688 672.546875 C 443.253906 672.746094 445.691406 672.65625 448.117188 672.273438 C 450.546875 671.890625 452.894531 671.230469 455.164062 670.285156 C 457.433594 669.34375 459.5625 668.148438 461.546875 666.699219 C 466.476562 663.03125 470.183594 657.945312 474.925781 654.03125 C 479.671875 650.117188 486.238281 647.417969 491.953125 649.695312 C 496.558594 651.53125 499.382812 656.066406 501.957031 660.308594 C 504.527344 664.546875 507.460938 669.035156 512.121094 670.707031 C 512.960938 670.980469 513.824219 671.128906 514.707031 671.148438 C 515.589844 671.164062 516.457031 671.054688 517.308594 670.816406 C 518.15625 670.578125 518.957031 670.222656 519.699219 669.75 C 520.445312 669.273438 521.105469 668.703125 521.679688 668.03125 C 523.433594 665.695312 527.078125 665.695312 528.15625 668.382812 C 530.328125 673.851562 525.96875 680.066406 520.429688 681.914062 C 514.890625 683.761719 509.046875 682.207031 503.789062 679.996094 C 498.53125 677.789062 493.507812 674.855469 487.945312 673.570312 C 479.085938 671.523438 469.832031 673.875 461.171875 676.667969 C 452.511719 679.460938 443.773438 682.742188 434.667969 682.601562 C 425.566406 682.464844 415.84375 677.929688 412.605469 669.445312 C 421.953125 692.3125 451.027344 705.132812 474.050781 695.375 C 474.855469 695.019531 475.695312 694.777344 476.5625 694.648438 C 477.433594 694.515625 478.308594 694.503906 479.179688 694.605469 C 480.054688 694.707031 480.902344 694.925781 481.71875 695.253906 C 482.535156 695.582031 483.292969 696.011719 483.996094 696.542969 C 489.101562 700.644531 485.492188 707.609375 480.910156 711.058594 C 470.707031 718.746094 456.371094 718.582031 444.25 714.5625 C 432.132812 710.542969 421.464844 703.136719 410.234375 697.035156 C 399.003906 690.933594 386.441406 685.992188 373.75 687.511719 C 361.058594 689.03125 345.390625 709.457031 344.828125 722.21875 C 364.367188 678.558594 390.203125 715.664062 409.265625 725.652344 C 428.324219 735.644531 450.597656 745.519531 470.554688 737.515625 C 476.972656 734.945312 482.546875 730.703125 488.574219 727.324219 C 495.925781 723.222656 504.667969 720.3125 512.765625 724.226562 C 513.753906 724.675781 514.671875 725.238281 515.515625 725.917969 C 516.363281 726.597656 517.113281 727.375 517.761719 728.242188 C 518.410156 729.113281 518.941406 730.050781 519.355469 731.054688 C 519.765625 732.058594 520.046875 733.097656 520.195312 734.171875 C 521.203125 743.519531 511.574219 748.582031 503.136719 749.082031 C 495.691406 749.527344 488.109375 747.761719 480.816406 749.363281 C 473.523438 750.964844 466.464844 758.023438 468.746094 765.117188 C 470.414062 756.140625 482.03125 752.261719 490.75 754.949219 C 499.464844 757.636719 506.058594 764.625 512.894531 770.679688 C 519.730469 776.730469 528.167969 782.363281 537.246094 781.3125 C 541.992188 780.773438 546.328125 778.460938 550.589844 776.289062 C 554.855469 774.113281 559.34375 772.011719 564.125 771.976562 C 568.902344 771.941406 574.046875 774.558594 575.425781 779.128906 C 576.804688 783.695312 572.574219 789.433594 567.933594 788.289062 C 581.5 795.300781 598.925781 786.828125 607.058594 773.914062 C 615.191406 761.003906 616.40625 745.050781 617.457031 729.824219 C 620.71875 681.457031 623.964844 633.078125 624.925781 584.605469 C 625.390625 560.789062 626.398438 536.367188 624.152344 512.632812 C 622.378906 493.9375 615.761719 485.546875 596.9375 491.949219 C 587.132812 495.28125 577.679688 501.660156 567.011719 501.390625 C 555.464844 501.101562 545.554688 493.984375 536.183594 488.011719 " fill-opacity="1" fill-rule="nonzero"/><path fill="#2650ff" d="M 899.796875 513.125 C 846.648438 458.515625 799.871094 547.785156 745.546875 543.085938 L 745.03125 543.085938 C 690.691406 547.761719 643.914062 458.515625 590.777344 513.125 C 544.550781 562.425781 480.429688 733.867188 548.710938 784.527344 C 559.472656 792.507812 573.332031 794.550781 586.328125 791.316406 C 649.007812 775.773438 638.796875 704.492188 723.460938 694.804688 C 731.289062 694.078125 738.476562 693.761719 745.265625 693.714844 C 752.054688 693.667969 759.289062 694.078125 767.058594 694.804688 C 852.761719 704.59375 841.25 777.457031 906.515625 791.792969 C 917.792969 794.285156 929.886719 792.589844 939.445312 786.140625 C 1011.59375 737.703125 946.550781 562.941406 899.796875 513.066406 " fill-opacity="1" fill-rule="nonzero"/><g clip-path="url(#900b1b0334)"><g clip-path="url(#10ace58c86)"><path fill="#ffffff" d="M 539.363281 606.65625 C 521.75 624.257812 524.613281 659.242188 534.558594 682.066406 C 544.503906 704.886719 569.207031 720.417969 594.097656 719.460938 C 616.699219 718.617188 636.84375 705.800781 656.03125 693.75 C 691.777344 671.429688 732.433594 649.859375 773.953125 657.09375 C 799.660156 661.570312 822.085938 676.621094 843.800781 691.074219 C 865.511719 705.53125 888.390625 720.125 914.265625 723.480469 C 940.136719 726.832031 969.851562 715.441406 979.214844 691.085938 C 1004.652344 727.21875 996.742188 782.632812 962.175781 810.1875 C 940.941406 827.132812 913.257812 833.257812 886.546875 838.234375 C 808.625 852.628906 730.066406 861.074219 650.867188 863.570312 C 612.851562 864.738281 573.824219 864.410156 538.226562 851.03125 C 502.632812 837.648438 470.683594 808.679688 463.742188 771.285156 C 459.769531 749.890625 464.222656 727.605469 472.660156 707.539062 C 481.097656 687.476562 493.378906 669.292969 505.707031 651.367188 " fill-opacity="1" fill-rule="nonzero"/></g></g><g clip-path="url(#a6df39dcc3)"><path stroke-linecap="butt" transform="matrix(1.168575, 0, 0, 1.168575, 143.214527, -7.171982)" fill="none" stroke-linejoin="miter" d="M 647.439878 445.240384 C 601.958487 398.508806 561.929113 474.900562 515.441555 470.87924 L 515.000312 470.87924 C 468.499384 474.880506 428.47001 398.508806 382.998647 445.240384 C 343.4406 487.429171 288.569437 634.138916 347.000623 677.490979 C 356.209886 684.320207 368.069946 686.068463 379.19126 683.30067 C 432.82895 669.999887 424.091014 609.001472 496.541673 600.711464 C 503.240535 600.089713 509.391186 599.818951 515.200877 599.778838 C 521.010568 599.738725 527.201333 600.089713 533.850053 600.711464 C 607.189883 609.088383 597.338813 671.44061 653.1894 683.708485 C 662.839905 685.841156 673.189044 684.390405 681.368742 678.871532 C 743.109246 637.471633 687.449195 487.910526 647.439878 445.240384 Z M 647.439878 445.240384 " stroke="#00ffd6" stroke-width="4.84" stroke-opacity="1" stroke-miterlimit="10"/></g><path fill="#ffffff" d="M 652.921875 669.820312 L 634.226562 669.820312 C 633.652344 669.820312 633.085938 669.765625 632.523438 669.652344 C 631.960938 669.542969 631.417969 669.378906 630.886719 669.160156 C 630.359375 668.941406 629.855469 668.671875 629.378906 668.355469 C 628.902344 668.035156 628.460938 667.675781 628.054688 667.269531 C 627.648438 666.863281 627.289062 666.425781 626.96875 665.949219 C 626.652344 665.472656 626.382812 664.96875 626.160156 664.441406 C 625.941406 663.910156 625.777344 663.367188 625.664062 662.804688 C 625.554688 662.242188 625.496094 661.675781 625.496094 661.101562 L 625.496094 555.355469 C 625.496094 554.785156 625.554688 554.214844 625.664062 553.65625 C 625.777344 553.09375 625.941406 552.546875 626.160156 552.019531 C 626.382812 551.488281 626.648438 550.984375 626.96875 550.511719 C 627.289062 550.035156 627.648438 549.59375 628.054688 549.1875 C 628.460938 548.785156 628.902344 548.421875 629.378906 548.105469 C 629.855469 547.785156 630.355469 547.519531 630.886719 547.300781 C 631.417969 547.082031 631.960938 546.914062 632.523438 546.804688 C 633.085938 546.695312 633.652344 546.636719 634.226562 546.640625 L 652.921875 546.640625 C 653.496094 546.640625 654.0625 546.695312 654.625 546.808594 C 655.1875 546.917969 655.730469 547.082031 656.261719 547.304688 C 656.789062 547.523438 657.289062 547.789062 657.765625 548.109375 C 658.242188 548.425781 658.683594 548.789062 659.089844 549.191406 C 659.492188 549.597656 659.855469 550.039062 660.171875 550.511719 C 660.488281 550.988281 660.757812 551.492188 660.976562 552.019531 C 661.195312 552.550781 661.363281 553.09375 661.472656 553.65625 C 661.585938 554.21875 661.640625 554.785156 661.640625 555.355469 L 661.640625 661.101562 C 661.640625 661.671875 661.585938 662.242188 661.472656 662.800781 C 661.363281 663.363281 661.195312 663.910156 660.976562 664.4375 C 660.757812 664.964844 660.488281 665.46875 660.171875 665.945312 C 659.855469 666.421875 659.492188 666.859375 659.089844 667.265625 C 658.683594 667.671875 658.242188 668.03125 657.765625 668.347656 C 657.289062 668.667969 656.789062 668.9375 656.257812 669.15625 C 655.730469 669.375 655.1875 669.539062 654.625 669.652344 C 654.0625 669.761719 653.496094 669.820312 652.921875 669.820312 " fill-opacity="1" fill-rule="nonzero"/><path fill="#ffffff" d="M 582.003906 617.546875 L 582.003906 598.851562 C 582.003906 598.277344 582.058594 597.710938 582.167969 597.148438 C 582.28125 596.585938 582.445312 596.039062 582.664062 595.507812 C 582.882812 594.980469 583.152344 594.476562 583.46875 594 C 583.789062 593.523438 584.152344 593.082031 584.554688 592.675781 C 584.960938 592.269531 585.402344 591.90625 585.878906 591.589844 C 586.355469 591.269531 586.859375 591.003906 587.390625 590.785156 C 587.917969 590.5625 588.464844 590.398438 589.027344 590.289062 C 589.589844 590.175781 590.160156 590.121094 590.730469 590.121094 L 696.464844 590.121094 C 697.039062 590.121094 697.605469 590.179688 698.167969 590.289062 C 698.730469 590.402344 699.277344 590.566406 699.804688 590.785156 C 700.335938 591.003906 700.839844 591.273438 701.316406 591.59375 C 701.792969 591.910156 702.230469 592.273438 702.636719 592.679688 C 703.042969 593.082031 703.40625 593.523438 703.722656 594 C 704.042969 594.476562 704.308594 594.980469 704.53125 595.511719 C 704.75 596.039062 704.914062 596.585938 705.027344 597.148438 C 705.136719 597.710938 705.195312 598.277344 705.195312 598.851562 L 705.195312 617.546875 C 705.195312 618.121094 705.136719 618.6875 705.027344 619.25 C 704.914062 619.8125 704.75 620.359375 704.53125 620.890625 C 704.308594 621.417969 704.042969 621.921875 703.722656 622.398438 C 703.40625 622.875 703.042969 623.316406 702.636719 623.722656 C 702.230469 624.125 701.792969 624.488281 701.316406 624.804688 C 700.839844 625.125 700.335938 625.394531 699.804688 625.613281 C 699.277344 625.832031 698.730469 625.996094 698.167969 626.109375 C 697.605469 626.222656 697.039062 626.277344 696.464844 626.277344 L 590.777344 626.277344 C 590.207031 626.277344 589.636719 626.222656 589.074219 626.113281 C 588.511719 626 587.964844 625.835938 587.4375 625.617188 C 586.90625 625.398438 586.402344 625.128906 585.925781 624.808594 C 585.449219 624.492188 585.007812 624.128906 584.601562 623.722656 C 584.199219 623.320312 583.835938 622.878906 583.515625 622.402344 C 583.199219 621.925781 582.929688 621.421875 582.710938 620.890625 C 582.492188 620.359375 582.328125 619.816406 582.214844 619.253906 C 582.105469 618.691406 582.050781 618.121094 582.050781 617.546875 " fill-opacity="1" fill-rule="nonzero"/><path fill="#ffffff" d="M 866.632812 563.722656 C 866.632812 564.460938 866.597656 565.199219 866.523438 565.933594 C 866.449219 566.671875 866.339844 567.402344 866.195312 568.125 C 866.050781 568.851562 865.871094 569.566406 865.65625 570.273438 C 865.441406 570.980469 865.195312 571.675781 864.910156 572.359375 C 864.628906 573.039062 864.3125 573.707031 863.964844 574.359375 C 863.613281 575.011719 863.234375 575.644531 862.824219 576.257812 C 862.414062 576.871094 861.972656 577.464844 861.503906 578.035156 C 861.035156 578.605469 860.539062 579.152344 860.015625 579.675781 C 859.492188 580.199219 858.945312 580.691406 858.375 581.160156 C 857.804688 581.628906 857.210938 582.070312 856.597656 582.480469 C 855.980469 582.890625 855.347656 583.269531 854.695312 583.617188 C 854.042969 583.964844 853.378906 584.28125 852.695312 584.5625 C 852.011719 584.84375 851.316406 585.09375 850.609375 585.308594 C 849.902344 585.523438 849.1875 585.703125 848.460938 585.84375 C 847.738281 585.988281 847.007812 586.097656 846.269531 586.167969 C 845.535156 586.242188 844.796875 586.277344 844.058594 586.277344 C 843.320312 586.277344 842.582031 586.242188 841.847656 586.167969 C 841.113281 586.09375 840.382812 585.988281 839.660156 585.84375 C 838.933594 585.699219 838.21875 585.519531 837.511719 585.304688 C 836.804688 585.089844 836.109375 584.839844 835.425781 584.558594 C 834.742188 584.273438 834.078125 583.957031 833.425781 583.609375 C 832.773438 583.261719 832.140625 582.882812 831.527344 582.472656 C 830.910156 582.058594 830.320312 581.621094 829.746094 581.152344 C 829.175781 580.683594 828.628906 580.1875 828.109375 579.664062 C 827.585938 579.140625 827.089844 578.59375 826.621094 578.023438 C 826.152344 577.453125 825.710938 576.859375 825.300781 576.246094 C 824.890625 575.628906 824.511719 574.996094 824.164062 574.34375 C 823.816406 573.691406 823.5 573.027344 823.21875 572.34375 C 822.9375 571.660156 822.6875 570.964844 822.472656 570.257812 C 822.257812 569.550781 822.078125 568.835938 821.933594 568.109375 C 821.792969 567.386719 821.683594 566.65625 821.609375 565.917969 C 821.539062 565.183594 821.503906 564.445312 821.503906 563.707031 C 821.503906 562.96875 821.539062 562.230469 821.613281 561.496094 C 821.683594 560.761719 821.792969 560.03125 821.9375 559.304688 C 822.082031 558.582031 822.261719 557.867188 822.476562 557.160156 C 822.691406 556.453125 822.9375 555.757812 823.222656 555.074219 C 823.503906 554.390625 823.820312 553.722656 824.167969 553.074219 C 824.515625 552.421875 824.894531 551.789062 825.308594 551.171875 C 825.71875 550.558594 826.15625 549.964844 826.625 549.394531 C 827.09375 548.824219 827.589844 548.277344 828.113281 547.753906 C 828.636719 547.230469 829.183594 546.738281 829.753906 546.269531 C 830.324219 545.800781 830.917969 545.359375 831.53125 544.949219 C 832.148438 544.539062 832.78125 544.160156 833.433594 543.8125 C 834.082031 543.460938 834.75 543.148438 835.433594 542.863281 C 836.117188 542.582031 836.8125 542.332031 837.519531 542.117188 C 838.226562 541.902344 838.941406 541.726562 839.664062 541.582031 C 840.390625 541.4375 841.121094 541.328125 841.855469 541.253906 C 842.589844 541.183594 843.328125 541.148438 844.066406 541.148438 C 844.808594 541.148438 845.542969 541.183594 846.28125 541.257812 C 847.015625 541.328125 847.746094 541.4375 848.46875 541.582031 C 849.195312 541.726562 849.910156 541.90625 850.617188 542.121094 C 851.324219 542.335938 852.019531 542.585938 852.703125 542.867188 C 853.386719 543.152344 854.054688 543.46875 854.707031 543.816406 C 855.355469 544.164062 855.992188 544.546875 856.605469 544.957031 C 857.21875 545.367188 857.8125 545.808594 858.382812 546.277344 C 858.953125 546.746094 859.5 547.242188 860.023438 547.765625 C 860.546875 548.285156 861.042969 548.832031 861.511719 549.40625 C 861.980469 549.976562 862.417969 550.570312 862.832031 551.183594 C 863.242188 551.800781 863.621094 552.433594 863.96875 553.085938 C 864.316406 553.738281 864.632812 554.402344 864.914062 555.085938 C 865.199219 555.769531 865.445312 556.464844 865.660156 557.171875 C 865.875 557.878906 866.054688 558.597656 866.199219 559.320312 C 866.34375 560.046875 866.453125 560.777344 866.523438 561.511719 C 866.597656 562.246094 866.632812 562.984375 866.632812 563.722656 " fill-opacity="1" fill-rule="nonzero"/><path fill="#ffffff" d="M 866.316406 639.984375 C 866.316406 640.726562 866.28125 641.460938 866.210938 642.199219 C 866.136719 642.933594 866.03125 643.664062 865.886719 644.390625 C 865.742188 645.117188 865.5625 645.832031 865.347656 646.539062 C 865.132812 647.25 864.886719 647.945312 864.601562 648.628906 C 864.320312 649.3125 864.003906 649.980469 863.65625 650.632812 C 863.308594 651.285156 862.929688 651.917969 862.515625 652.53125 C 862.105469 653.148438 861.667969 653.742188 861.199219 654.3125 C 860.730469 654.886719 860.234375 655.433594 859.710938 655.957031 C 859.1875 656.480469 858.640625 656.976562 858.070312 657.445312 C 857.496094 657.914062 856.902344 658.355469 856.289062 658.765625 C 855.675781 659.175781 855.039062 659.554688 854.386719 659.90625 C 853.738281 660.253906 853.070312 660.570312 852.386719 660.851562 C 851.703125 661.136719 851.007812 661.386719 850.300781 661.601562 C 849.589844 661.816406 848.875 661.996094 848.148438 662.140625 C 847.425781 662.285156 846.695312 662.390625 845.957031 662.464844 C 845.222656 662.535156 844.484375 662.574219 843.746094 662.574219 C 843.003906 662.574219 842.265625 662.539062 841.53125 662.464844 C 840.796875 662.394531 840.0625 662.285156 839.339844 662.140625 C 838.613281 661.996094 837.898438 661.816406 837.1875 661.601562 C 836.480469 661.386719 835.785156 661.140625 835.101562 660.855469 C 834.417969 660.574219 833.75 660.257812 833.097656 659.910156 C 832.445312 659.558594 831.8125 659.179688 831.199219 658.769531 C 830.582031 658.359375 829.988281 657.917969 829.417969 657.449219 C 828.847656 656.980469 828.300781 656.484375 827.777344 655.960938 C 827.253906 655.4375 826.757812 654.890625 826.289062 654.320312 C 825.820312 653.746094 825.378906 653.152344 824.96875 652.539062 C 824.558594 651.925781 824.175781 651.289062 823.828125 650.636719 C 823.480469 649.984375 823.164062 649.316406 822.882812 648.632812 C 822.597656 647.953125 822.347656 647.253906 822.136719 646.546875 C 821.921875 645.839844 821.742188 645.125 821.597656 644.398438 C 821.453125 643.671875 821.34375 642.941406 821.273438 642.207031 C 821.199219 641.46875 821.164062 640.730469 821.164062 639.992188 C 821.164062 639.253906 821.199219 638.515625 821.273438 637.78125 C 821.34375 637.042969 821.453125 636.3125 821.597656 635.585938 C 821.742188 634.863281 821.921875 634.144531 822.136719 633.4375 C 822.351562 632.730469 822.601562 632.035156 822.882812 631.351562 C 823.167969 630.667969 823.484375 630 823.832031 629.347656 C 824.179688 628.695312 824.5625 628.0625 824.972656 627.449219 C 825.382812 626.832031 825.824219 626.238281 826.292969 625.667969 C 826.761719 625.097656 827.257812 624.550781 827.78125 624.027344 C 828.304688 623.503906 828.851562 623.007812 829.425781 622.539062 C 829.996094 622.070312 830.589844 621.628906 831.203125 621.21875 C 831.820312 620.808594 832.453125 620.429688 833.105469 620.082031 C 833.757812 619.734375 834.425781 619.417969 835.109375 619.132812 C 835.792969 618.851562 836.488281 618.601562 837.195312 618.390625 C 837.902344 618.175781 838.621094 617.996094 839.347656 617.851562 C 840.070312 617.707031 840.800781 617.597656 841.539062 617.527344 C 842.273438 617.457031 843.011719 617.417969 843.753906 617.417969 C 844.492188 617.421875 845.226562 617.457031 845.964844 617.53125 C 846.699219 617.601562 847.429688 617.710938 848.152344 617.855469 C 848.878906 618 849.59375 618.179688 850.300781 618.394531 C 851.007812 618.609375 851.703125 618.859375 852.386719 619.140625 C 853.066406 619.421875 853.734375 619.738281 854.386719 620.085938 C 855.039062 620.4375 855.671875 620.816406 856.285156 621.226562 C 856.898438 621.636719 857.492188 622.078125 858.0625 622.546875 C 858.636719 623.015625 859.183594 623.511719 859.703125 624.03125 C 860.226562 624.554688 860.722656 625.101562 861.191406 625.671875 C 861.660156 626.242188 862.101562 626.835938 862.511719 627.453125 C 862.921875 628.066406 863.300781 628.699219 863.648438 629.351562 C 863.996094 630 864.3125 630.667969 864.597656 631.351562 C 864.878906 632.035156 865.128906 632.730469 865.34375 633.4375 C 865.558594 634.144531 865.738281 634.859375 865.882812 635.582031 C 866.027344 636.308594 866.136719 637.039062 866.207031 637.773438 C 866.28125 638.507812 866.316406 639.246094 866.316406 639.984375 " fill-opacity="1" fill-rule="nonzero"/><path fill="#ffffff" d="M 828.550781 602.425781 C 828.550781 603.167969 828.511719 603.902344 828.441406 604.640625 C 828.367188 605.375 828.257812 606.105469 828.117188 606.828125 C 827.972656 607.554688 827.792969 608.269531 827.578125 608.976562 C 827.363281 609.683594 827.113281 610.378906 826.832031 611.0625 C 826.546875 611.746094 826.234375 612.414062 825.882812 613.0625 C 825.535156 613.714844 825.15625 614.347656 824.746094 614.964844 C 824.335938 615.578125 823.894531 616.171875 823.425781 616.742188 C 822.957031 617.3125 822.460938 617.859375 821.941406 618.382812 C 821.417969 618.90625 820.871094 619.402344 820.300781 619.871094 C 819.726562 620.339844 819.132812 620.777344 818.519531 621.1875 C 817.90625 621.601562 817.273438 621.980469 816.621094 622.328125 C 815.96875 622.675781 815.300781 622.992188 814.617188 623.273438 C 813.9375 623.558594 813.242188 623.804688 812.535156 624.019531 C 811.828125 624.234375 811.109375 624.414062 810.386719 624.558594 C 809.660156 624.703125 808.929688 624.8125 808.195312 624.882812 C 807.460938 624.957031 806.722656 624.992188 805.984375 624.992188 C 805.246094 624.992188 804.507812 624.957031 803.773438 624.882812 C 803.035156 624.8125 802.304688 624.703125 801.582031 624.558594 C 800.855469 624.414062 800.140625 624.234375 799.433594 624.019531 C 798.726562 623.804688 798.03125 623.558594 797.347656 623.273438 C 796.664062 622.992188 796 622.675781 795.347656 622.328125 C 794.695312 621.980469 794.0625 621.601562 793.445312 621.1875 C 792.832031 620.777344 792.238281 620.339844 791.667969 619.871094 C 791.097656 619.402344 790.550781 618.90625 790.027344 618.382812 C 789.503906 617.859375 789.007812 617.3125 788.539062 616.742188 C 788.070312 616.171875 787.632812 615.578125 787.222656 614.964844 C 786.8125 614.347656 786.429688 613.714844 786.082031 613.0625 C 785.734375 612.414062 785.417969 611.746094 785.136719 611.0625 C 784.851562 610.378906 784.605469 609.683594 784.390625 608.976562 C 784.175781 608.269531 783.996094 607.554688 783.851562 606.828125 C 783.707031 606.105469 783.601562 605.375 783.527344 604.640625 C 783.453125 603.902344 783.417969 603.167969 783.417969 602.425781 C 783.417969 601.6875 783.453125 600.949219 783.527344 600.214844 C 783.601562 599.480469 783.707031 598.75 783.851562 598.023438 C 783.996094 597.300781 784.175781 596.582031 784.390625 595.875 C 784.605469 595.167969 784.851562 594.472656 785.136719 593.792969 C 785.417969 593.109375 785.734375 592.441406 786.082031 591.789062 C 786.429688 591.136719 786.8125 590.503906 787.222656 589.890625 C 787.632812 589.277344 788.070312 588.683594 788.539062 588.113281 C 789.007812 587.539062 789.503906 586.992188 790.027344 586.472656 C 790.550781 585.949219 791.097656 585.453125 791.667969 584.984375 C 792.238281 584.515625 792.832031 584.074219 793.445312 583.664062 C 794.0625 583.253906 794.695312 582.875 795.347656 582.527344 C 796 582.179688 796.664062 581.863281 797.347656 581.578125 C 798.03125 581.296875 798.726562 581.046875 799.433594 580.832031 C 800.140625 580.617188 800.855469 580.441406 801.582031 580.296875 C 802.304688 580.152344 803.035156 580.042969 803.773438 579.96875 C 804.507812 579.898438 805.246094 579.863281 805.984375 579.863281 C 806.722656 579.863281 807.460938 579.898438 808.195312 579.96875 C 808.929688 580.042969 809.660156 580.152344 810.386719 580.296875 C 811.109375 580.441406 811.828125 580.617188 812.535156 580.832031 C 813.242188 581.046875 813.9375 581.296875 814.617188 581.578125 C 815.300781 581.863281 815.96875 582.179688 816.621094 582.527344 C 817.273438 582.875 817.90625 583.253906 818.519531 583.664062 C 819.132812 584.074219 819.726562 584.515625 820.300781 584.984375 C 820.871094 585.453125 821.417969 585.949219 821.941406 586.472656 C 822.460938 586.992188 822.957031 587.539062 823.425781 588.113281 C 823.894531 588.683594 824.335938 589.277344 824.746094 589.890625 C 825.15625 590.503906 825.535156 591.136719 825.882812 591.789062 C 826.234375 592.441406 826.546875 593.109375 826.832031 593.792969 C 827.113281 594.472656 827.363281 595.167969 827.578125 595.875 C 827.792969 596.582031 827.972656 597.300781 828.117188 598.023438 C 828.257812 598.75 828.367188 599.480469 828.441406 600.214844 C 828.511719 600.949219 828.550781 601.6875 828.550781 602.425781 " fill-opacity="1" fill-rule="nonzero"/><path fill="#ffffff" d="M 904.84375 602.34375 C 904.84375 603.085938 904.808594 603.820312 904.738281 604.558594 C 904.664062 605.292969 904.554688 606.023438 904.410156 606.746094 C 904.265625 607.472656 904.089844 608.1875 903.875 608.894531 C 903.660156 609.601562 903.410156 610.296875 903.128906 610.980469 C 902.84375 611.664062 902.527344 612.332031 902.179688 612.984375 C 901.832031 613.632812 901.453125 614.265625 901.042969 614.882812 C 900.632812 615.496094 900.191406 616.089844 899.722656 616.660156 C 899.253906 617.230469 898.757812 617.777344 898.234375 618.300781 C 897.714844 618.824219 897.167969 619.320312 896.59375 619.789062 C 896.023438 620.257812 895.429688 620.695312 894.816406 621.109375 C 894.203125 621.519531 893.570312 621.898438 892.917969 622.246094 C 892.265625 622.59375 891.597656 622.910156 890.914062 623.191406 C 890.234375 623.476562 889.539062 623.722656 888.832031 623.9375 C 888.125 624.152344 887.40625 624.332031 886.683594 624.476562 C 885.957031 624.621094 885.226562 624.730469 884.492188 624.800781 C 883.757812 624.875 883.019531 624.910156 882.28125 624.910156 C 881.542969 624.910156 880.804688 624.875 880.066406 624.800781 C 879.332031 624.730469 878.601562 624.621094 877.878906 624.476562 C 877.152344 624.332031 876.4375 624.152344 875.730469 623.9375 C 875.023438 623.722656 874.328125 623.476562 873.644531 623.191406 C 872.960938 622.910156 872.292969 622.59375 871.644531 622.246094 C 870.992188 621.898438 870.359375 621.519531 869.742188 621.109375 C 869.128906 620.695312 868.535156 620.257812 867.964844 619.789062 C 867.394531 619.320312 866.847656 618.824219 866.324219 618.300781 C 865.800781 617.777344 865.304688 617.230469 864.835938 616.660156 C 864.367188 616.089844 863.929688 615.496094 863.519531 614.882812 C 863.105469 614.265625 862.726562 613.632812 862.378906 612.984375 C 862.03125 612.332031 861.714844 611.664062 861.433594 610.980469 C 861.148438 610.296875 860.902344 609.601562 860.6875 608.894531 C 860.472656 608.1875 860.292969 607.472656 860.148438 606.746094 C 860.003906 606.023438 859.894531 605.292969 859.824219 604.558594 C 859.75 603.820312 859.714844 603.085938 859.714844 602.34375 C 859.714844 601.605469 859.75 600.867188 859.824219 600.132812 C 859.894531 599.398438 860.003906 598.667969 860.148438 597.941406 C 860.292969 597.21875 860.472656 596.503906 860.6875 595.792969 C 860.902344 595.085938 861.148438 594.394531 861.433594 593.710938 C 861.714844 593.027344 862.03125 592.359375 862.378906 591.707031 C 862.726562 591.054688 863.105469 590.421875 863.519531 589.808594 C 863.929688 589.195312 864.367188 588.601562 864.835938 588.03125 C 865.304688 587.457031 865.800781 586.910156 866.324219 586.390625 C 866.847656 585.867188 867.394531 585.371094 867.964844 584.902344 C 868.535156 584.433594 869.128906 583.992188 869.742188 583.582031 C 870.359375 583.171875 870.992188 582.792969 871.644531 582.445312 C 872.292969 582.097656 872.960938 581.78125 873.644531 581.496094 C 874.328125 581.214844 875.023438 580.964844 875.730469 580.75 C 876.4375 580.539062 877.152344 580.359375 877.878906 580.214844 C 878.601562 580.070312 879.332031 579.960938 880.066406 579.890625 C 880.804688 579.816406 881.542969 579.78125 882.28125 579.78125 C 883.019531 579.78125 883.757812 579.816406 884.492188 579.886719 C 885.226562 579.960938 885.957031 580.066406 886.683594 580.210938 C 887.410156 580.355469 888.125 580.535156 888.832031 580.75 C 889.539062 580.964844 890.234375 581.210938 890.917969 581.496094 C 891.601562 581.777344 892.265625 582.09375 892.917969 582.441406 C 893.570312 582.789062 894.203125 583.167969 894.820312 583.578125 C 895.433594 583.988281 896.027344 584.429688 896.597656 584.898438 C 897.167969 585.367188 897.714844 585.863281 898.238281 586.386719 C 898.761719 586.910156 899.257812 587.457031 899.726562 588.027344 C 900.195312 588.597656 900.636719 589.191406 901.046875 589.804688 C 901.457031 590.421875 901.835938 591.054688 902.183594 591.707031 C 902.53125 592.359375 902.847656 593.023438 903.128906 593.707031 C 903.414062 594.390625 903.660156 595.085938 903.875 595.792969 C 904.089844 596.5 904.269531 597.21875 904.414062 597.941406 C 904.558594 598.667969 904.664062 599.398438 904.738281 600.132812 C 904.808594 600.867188 904.84375 601.605469 904.84375 602.34375 " fill-opacity="1" fill-rule="nonzero"/><path fill="#ffffff" d="M 549.960938 646.332031 C 546.089844 659.816406 543.449219 673.539062 542.050781 687.5 C 541.382812 694.425781 541.070312 701.367188 541.113281 708.324219 C 541.003906 715.21875 541.535156 722.0625 542.714844 728.855469 C 543.746094 735.570312 546.132812 741.757812 549.878906 747.425781 C 551.738281 750.140625 553.972656 752.503906 556.585938 754.503906 C 559.25 756.457031 562.15625 757.933594 565.304688 758.933594 C 568.507812 759.957031 571.792969 760.410156 575.152344 760.296875 C 578.515625 760.1875 581.761719 759.511719 584.890625 758.28125 C 588.121094 757 591.0625 755.230469 593.714844 752.980469 C 596.363281 750.730469 598.585938 748.113281 600.371094 745.132812 C 599.839844 746.386719 599.226562 747.601562 598.535156 748.773438 C 597.839844 749.945312 597.070312 751.066406 596.226562 752.132812 C 595.378906 753.203125 594.46875 754.210938 593.488281 755.15625 C 592.507812 756.101562 591.46875 756.980469 590.375 757.789062 C 589.277344 758.59375 588.128906 759.324219 586.933594 759.980469 C 585.742188 760.632812 584.507812 761.207031 583.234375 761.695312 C 581.964844 762.183594 580.664062 762.585938 579.339844 762.898438 C 578.015625 763.214844 576.675781 763.4375 575.320312 763.574219 C 571.574219 763.925781 567.882812 763.628906 564.242188 762.683594 C 560.554688 761.742188 557.152344 760.183594 554.027344 758.011719 C 550.933594 755.8125 548.261719 753.183594 546.011719 750.125 C 541.582031 744.011719 539.210938 736.824219 537.832031 729.71875 C 536.652344 722.605469 536.1875 715.449219 536.429688 708.242188 C 536.554688 701.132812 537.144531 694.0625 538.191406 687.03125 C 540.238281 672.921875 544.160156 659.355469 549.960938 646.332031 " fill-opacity="1" fill-rule="nonzero"/><path fill="#ffffff" d="M 936.105469 646.332031 C 941.90625 659.355469 945.828125 672.921875 947.871094 687.03125 C 948.933594 694.078125 949.535156 701.164062 949.671875 708.289062 C 949.914062 715.492188 949.445312 722.652344 948.269531 729.765625 C 946.914062 736.871094 944.542969 744.058594 940.089844 750.171875 C 937.839844 753.230469 935.167969 755.859375 932.074219 758.058594 C 928.949219 760.230469 925.546875 761.789062 921.859375 762.730469 C 918.21875 763.675781 914.527344 763.96875 910.78125 763.621094 C 909.425781 763.484375 908.085938 763.261719 906.761719 762.945312 C 905.433594 762.632812 904.136719 762.230469 902.863281 761.742188 C 901.59375 761.253906 900.359375 760.679688 899.164062 760.027344 C 897.96875 759.371094 896.824219 758.640625 895.726562 757.835938 C 894.628906 757.027344 893.589844 756.148438 892.613281 755.203125 C 891.632812 754.257812 890.71875 753.25 889.875 752.179688 C 889.03125 751.113281 888.261719 749.992188 887.566406 748.820312 C 886.871094 747.648438 886.257812 746.433594 885.726562 745.179688 C 887.527344 748.148438 889.753906 750.75 892.40625 752.988281 C 895.0625 755.222656 898.003906 756.976562 901.234375 758.246094 C 904.363281 759.476562 907.609375 760.152344 910.96875 760.261719 C 914.332031 760.375 917.613281 759.921875 920.820312 758.898438 C 923.964844 757.898438 926.871094 756.421875 929.539062 754.46875 C 932.152344 752.46875 934.386719 750.105469 936.246094 747.390625 C 939.96875 741.71875 942.339844 735.527344 943.351562 728.820312 C 944.527344 722.027344 945.0625 715.183594 944.949219 708.289062 C 944.996094 701.332031 944.683594 694.390625 944.015625 687.464844 C 942.613281 673.503906 939.976562 659.78125 936.105469 646.296875 " fill-opacity="1" fill-rule="nonzero"/></svg>